<?xml version="1.0" encoding="utf-8"?>
<!-- Created with Inkscape (http://www.inkscape.org/) -->
<svg width="48" height="48" version="1.2" viewBox="0 0 48 48" baseProfile="tiny-ps" xmlns="http://www.w3.org/2000/svg">
  <title>U3A BIMI Logo</title>
  <g>
    <circle cx="24.059" cy="24" r="23.941" fill="#d40000" />
    <path d="m22.288 47.846c-7.1586-0.56197-13.564-4.1981-17.771-10.088-1.2948-1.8128-2.5532-4.3424-3.2459-6.5247-0.43391-1.367-0.78956-3.0412-0.98484-4.6361-0.14725-1.2026-0.14725-3.993 0-5.1956 0.35923-2.9338 1.1386-5.5697 2.3793-8.047 1.2124-2.4207 2.6-4.3393 4.5351-6.2703 1.4767-1.4736 2.8654-2.5619 4.5484-3.5646 3.0287-1.8045 6.1224-2.8535 9.7122-3.293 1.2026-0.14725 3.993-0.14725 5.1956 0 5.57 0.68202 10.391 2.9941 14.233 6.8264 1.9921 1.9869 3.33 3.8356 4.5629 6.305 2.6303 5.2684 3.2177 11.295 1.655 16.98-1.4582 5.3049-4.7176 9.9371-9.2903 13.203-1.2706 0.90751-3.0324 1.8802-4.585 2.5313-3.3679 1.4124-7.3403 2.0559-10.945 1.773z" fill="#fecf22" stroke="#fecf22" stroke-width=".059" />
    <text transform="scale(1.0053 .9947)" x="0.78486431" y="31.086285" fill="#023f84" font-family="'Bodoni MT'" font-size="23.613px" stroke="#023f84" stroke-width=".058048">
      <tspan x="0.78486431" y="31.086285" stroke-width=".058048">U3A</tspan>
    </text>
  </g>
</svg>